HIERARCHY
ROOT Hips
{
	OFFSET 0.000000 0.000000 0.000000
	CHANNELS 6 Xposition Yposition Zposition Zrotation Yrotation Xrotation 
	JOINT LeftUpLeg_virtual
	{
		OFFSET 0.000000 0.000000 0.000000
		CHANNELS 3 Zrotation Yrotation Xrotation
		JOINT LeftUpLeg
		{
			OFFSET 8.479694 -4.795517 -0.379053
			CHANNELS 3 Zrotation Yrotation Xrotation
			JOINT LeftLeg
			{
				OFFSET 0.485052 -32.551468 0.112863
				CHANNELS 3 Zrotation Yrotation Xrotation
				JOINT LeftFoot
				{
					OFFSET 0.438033 -32.635670 -3.012641
					CHANNELS 3 Zrotation Yrotation Xrotation
					JOINT LeftToeBase
					{
						OFFSET 0.970169 -13.225353 11.864223
						CHANNELS 3 Zrotation Yrotation Xrotation
						End Site
						{
							OFFSET 0.000000 0.000000 0.000000
						}
					}
				}
			}
		}
	}
	JOINT RightUpLeg_virtual
	{
		OFFSET 0.000000 0.000000 0.000000
		CHANNELS 3 Zrotation Yrotation Xrotation
		JOINT RightUpLeg
		{
			OFFSET -8.479694 -4.795517 -0.379053
			CHANNELS 3 Zrotation Yrotation Xrotation
			JOINT RightLeg
			{
				OFFSET -0.484100 -32.551483 0.112903
				CHANNELS 3 Zrotation Yrotation Xrotation
				JOINT RightFoot
				{
					OFFSET -0.438985 -32.635651 -3.012681
					CHANNELS 3 Zrotation Yrotation Xrotation
					JOINT RightToeBase
					{
						OFFSET -0.970169 -13.225354 11.864223
						CHANNELS 3 Zrotation Yrotation Xrotation
						End Site
						{
							OFFSET 0.000000 0.000000 0.000000
						}
					}
				}
			}
		}
	}
	JOINT Spine_virtual
	{
		OFFSET 0.000000 0.000000 0.000000
		CHANNELS 3 Zrotation Yrotation Xrotation
		JOINT Spine
		{
			OFFSET 0.000000 7.722015 1.166203
			CHANNELS 3 Zrotation Yrotation Xrotation
			JOINT Spine1
			{
				OFFSET 0.000000 12.024086 0.248766
				CHANNELS 3 Zrotation Yrotation Xrotation
				JOINT Spine2
				{
					OFFSET -0.000000 11.503036 -0.491240
					CHANNELS 3 Zrotation Yrotation Xrotation
					JOINT Neck_virtual
					{
						OFFSET 0.000000 0.000000 0.000000
						CHANNELS 3 Zrotation Yrotation Xrotation
						JOINT Neck
						{
							OFFSET 0.000000 18.430687 -3.123054
							CHANNELS 3 Zrotation Yrotation Xrotation
							JOINT Head
							{
								OFFSET -0.000000 9.051071 1.034021
								CHANNELS 3 Zrotation Yrotation Xrotation
								End Site
								{
									OFFSET 0.000000 0.000000 0.000000
								}
							}
						}
					}
					JOINT LeftShoulder_virtual
					{
						OFFSET 0.000000 0.000000 0.000000
						CHANNELS 3 Zrotation Yrotation Xrotation
						JOINT LeftShoulder
						{
							OFFSET 6.197824 13.665230 -4.064723
							CHANNELS 3 Zrotation Yrotation Xrotation
							JOINT LeftArm
							{
								OFFSET 7.778132 -0.187073 -1.709282
								CHANNELS 3 Zrotation Yrotation Xrotation
								JOINT LeftForeArm
								{
									OFFSET 21.954697 0.000000 -2.041093
									CHANNELS 3 Zrotation Yrotation Xrotation
									JOINT LeftHand
									{
										OFFSET 22.992908 0.000000 -0.870901
										CHANNELS 3 Zrotation Yrotation Xrotation
										End Site
										{
											OFFSET 0.000000 0.000000 0.000000
										}
									}
								}
							}
						}
					}
					JOINT RightShoulder_virtual
					{
						OFFSET 0.000000 0.000000 0.000000
						CHANNELS 3 Zrotation Yrotation Xrotation
						JOINT RightShoulder
						{
							OFFSET -6.197824 13.665230 -4.064723
							CHANNELS 3 Zrotation Yrotation Xrotation
							JOINT RightArm
							{
								OFFSET -7.778132 -0.187073 -1.709282
								CHANNELS 3 Zrotation Yrotation Xrotation
								JOINT RightForeArm
								{
									OFFSET -21.954697 0.000000 -2.041093
									CHANNELS 3 Zrotation Yrotation Xrotation
									JOINT RightHand
									{
										OFFSET -22.992908 0.000000 -0.870901
										CHANNELS 3 Zrotation Yrotation Xrotation
										End Site
										{
											OFFSET 0.000000 0.000000 0.000000
										}
									}
								}
							}
						}
					}
				}
			}
		}
	}
}
MOTION
Frames: 11
Frame Time: 0.033333
41.803623 79.982719 79.244316 -0.092247 -19.863006 0.138180 -6.934618 -3.485072 12.949788 5.548100 -2.089753 -17.959733 5.434365 3.368216 26.899023 -2.836528 -3.739847 -13.430170 0.000000 0.000000 0.000000 -2.477679 -4.007716 10.456107 1.088664 -5.767813 -36.458764 -0.686814 4.135776 27.090286 5.721739 12.832894 -4.935140 0.000000 0.000000 0.000000 -2.438695 -0.772660 2.290378 2.220397 2.610139 1.501298 -0.688177 -1.128700 9.377148 -0.019091 0.008155 0.044310 -0.688638 -0.168318 9.502960 8.539017 -10.270800 -3.432382 0.000000 0.000000 0.000000 0.490786 0.316419 6.237875 6.996535 -3.952090 1.068396 -46.397151 -4.814739 43.046147 -33.875740 -73.075463 48.159626 0.000000 0.000000 0.000000 -3.544056 2.134877 5.095135 12.860964 -4.356153 -4.519385 70.085732 41.438737 23.295064 -167.612241 64.431340 -165.397785 0.000000 0.000000 0.000000 
40.768658 79.801819 80.598846 -0.061860 -19.873054 0.131194 -7.037202 -3.271900 12.760223 5.502905 -2.821419 -16.257964 6.236882 3.122575 26.734284 -2.578995 -3.850332 -14.275932 0.000000 0.000000 0.000000 -2.464569 -3.886186 10.204225 0.954672 -5.399024 -37.839214 -0.839867 4.052525 25.647575 5.761139 12.653314 -4.204271 0.000000 0.000000 0.000000 -2.271298 -0.581270 2.092847 2.200679 2.295752 1.546836 -0.681648 -1.225009 9.283364 -0.015900 0.006009 -0.038831 -0.714730 -0.181250 9.568059 7.655203 -10.199475 -3.786314 0.000000 0.000000 0.000000 0.522928 0.173497 6.242984 6.240521 -3.743234 1.300259 -46.083676 -5.547372 43.663729 -32.851038 -72.590445 47.535494 0.000000 0.000000 0.000000 -3.528616 1.990718 5.203307 13.957408 -3.919895 -4.375738 66.695213 43.914674 20.183935 -169.362122 63.332690 -166.648829 0.000000 0.000000 0.000000 
39.525627 79.573547 82.032089 -0.067851 -19.717790 0.115795 -6.632700 -4.199347 12.810027 5.120153 -3.869845 -14.310199 6.332016 3.056666 26.389319 -1.713913 -3.157482 -14.915549 0.000000 0.000000 0.000000 -2.425832 -3.787949 9.972419 0.698946 -5.075151 -38.602344 -0.987053 3.739143 24.998520 5.686794 12.562756 -3.806447 0.000000 0.000000 0.000000 -2.029354 -0.557527 1.857195 2.082530 1.959263 1.406090 -0.677524 -1.292468 9.218753 0.018883 0.052889 0.009517 -0.755130 -0.402762 9.402975 6.791743 -10.130126 -3.865230 0.000000 0.000000 0.000000 0.523545 0.146324 6.098434 5.357878 -3.461308 1.477396 -45.646585 -6.390103 44.415323 -32.049867 -72.129803 47.160161 0.000000 0.000000 0.000000 -3.587533 1.956590 5.108535 14.942840 -3.396532 -4.257161 62.579703 46.243560 16.252097 -170.578988 62.265773 -167.426610 0.000000 0.000000 0.000000 
38.062874 79.284271 83.507553 0.116896 -19.815463 0.015528 -6.438660 -4.847920 12.993503 5.029054 -4.682440 -12.433388 6.393237 3.008354 26.025029 -1.191283 -2.901204 -15.501299 0.000000 0.000000 0.000000 -2.396408 -3.630059 9.656485 0.488663 -4.801613 -38.785810 -1.028411 4.009301 25.072844 5.364949 12.326804 -3.592300 0.000000 0.000000 0.000000 -1.887247 -0.425622 1.535952 1.819721 1.732469 1.237405 -0.714137 -1.287896 9.076599 0.040050 0.132645 0.055699 -0.867274 -0.405042 9.233586 5.873294 -10.122712 -4.033823 0.000000 0.000000 0.000000 0.509695 0.115728 5.868221 4.555340 -3.104484 1.691138 -45.112669 -6.788905 45.237559 -31.622225 -71.773486 47.172702 0.000000 0.000000 0.000000 -3.588323 1.965963 4.974332 15.690867 -2.643712 -3.991630 58.026159 48.491813 11.738492 -171.519027 61.198604 -167.951729 0.000000 0.000000 0.000000 
36.363232 78.949783 85.108154 0.169040 -19.770269 0.077843 -6.163368 -4.858857 12.975352 4.998123 -5.168982 -10.458898 6.335665 2.979016 25.521570 -0.976393 -3.058709 -15.914860 0.000000 0.000000 0.000000 -2.335165 -3.303269 9.342412 0.308024 -4.426919 -38.421709 -1.011320 3.953356 25.540157 5.061138 12.174486 -3.566823 0.000000 0.000000 0.000000 -1.618345 -0.004740 1.107900 1.560806 1.606764 0.885096 -0.762998 -1.338436 8.903042 0.059028 0.169036 -0.020699 -0.736370 -0.334334 9.080754 5.239934 -10.201480 -4.233933 0.000000 0.000000 0.000000 0.538519 0.109073 5.864211 3.893591 -2.859148 1.790428 -44.650839 -7.308839 46.026784 -31.409076 -71.554032 47.378516 0.000000 0.000000 0.000000 -3.643190 1.830048 4.808073 16.434588 -2.076248 -3.776186 53.131611 50.593533 6.788019 -172.503121 60.174199 -168.562607 0.000000 0.000000 0.000000 
34.436569 78.586510 86.849174 0.350781 -19.768541 -0.020604 -5.762874 -4.405584 12.910480 5.096794 -5.487199 -8.341760 6.351967 3.046084 25.021802 -0.748788 -3.126997 -16.010638 0.000000 0.000000 0.000000 -2.199023 -2.797876 9.119003 -0.196062 -3.708844 -37.547845 -1.126664 4.822019 25.200195 4.792538 11.925083 -2.253824 0.000000 0.000000 0.000000 -1.430997 0.448896 0.793461 1.235195 1.188151 0.453774 -0.816360 -1.369234 8.694820 0.110663 0.205066 0.035927 -0.739334 -0.440692 8.785126 4.550638 -10.061068 -4.215054 0.000000 0.000000 0.000000 0.626739 0.061161 5.581587 3.139772 -2.416409 1.901342 -44.140285 -7.419369 46.624654 -31.460596 -71.446381 47.823400 0.000000 0.000000 0.000000 -3.688653 1.651000 4.626899 17.107915 -1.172928 -3.540384 48.326017 52.590725 1.701399 -173.590392 59.406076 -169.329706 0.000000 0.000000 0.000000 
32.311707 78.222771 88.750893 0.685970 -19.453697 -0.209525 -5.289700 -3.967915 12.872114 5.260544 -5.800735 -6.261920 6.456945 3.160361 24.683885 -0.531377 -3.089623 -15.496041 0.000000 0.000000 0.000000 -2.361921 -2.364787 8.770135 -1.030327 -2.110327 -36.688003 -1.487182 6.969248 25.249365 4.996569 12.084488 -0.681996 0.000000 0.000000 0.000000 -1.299360 0.835066 0.587083 0.921209 0.926952 -0.000183 -0.915232 -1.483530 8.508264 0.079565 0.110897 0.022613 -0.784933 -0.422774 8.594666 3.800900 -10.023410 -4.272172 0.000000 0.000000 0.000000 0.766260 -0.134371 5.372836 2.298729 -2.071781 1.889501 -43.535110 -7.326210 46.891004 -31.808672 -71.353566 48.553735 0.000000 0.000000 0.000000 -3.696709 1.605506 4.367864 17.533925 -0.500527 -3.237728 44.348309 54.232655 -2.191041 -173.897586 58.678046 -169.322794 0.000000 0.000000 0.000000 
30.024513 77.910614 90.854034 0.613523 -18.917720 -0.350415 -4.874587 -3.043579 12.712371 5.227143 -5.358375 -4.571788 6.913827 4.706269 24.943945 0.463616 -1.933150 -13.985442 0.000000 0.000000 0.000000 -2.684322 -2.549754 8.460240 -1.189676 -1.318416 -35.896158 -1.533266 7.601824 26.555723 4.499423 11.606334 -0.972436 0.000000 0.000000 0.000000 -1.048455 0.688214 0.511364 0.816463 0.439481 -0.469268 -0.884556 -1.606764 8.339647 0.136622 0.116021 -0.024755 -0.850520 -0.519061 8.358878 3.134830 -9.882775 -4.371520 0.000000 0.000000 0.000000 0.736261 -0.079478 5.112171 1.568018 -1.569428 1.909644 -43.186466 -7.153423 46.906184 -32.316784 -71.456032 49.338001 0.000000 0.000000 0.000000 -3.806643 1.720214 4.143534 18.343598 0.371262 -3.102492 40.469527 55.391806 -5.545571 -174.470175 58.075808 -169.584991 0.000000 0.000000 0.000000 
27.617170 77.687744 93.027267 0.361772 -18.582556 -0.287633 -4.476126 -2.362597 12.116081 5.233062 -4.797306 -2.889707 7.721064 7.355181 25.645195 1.021114 -1.372483 -11.539048 0.000000 0.000000 0.000000 -2.813262 -2.536350 8.197651 -1.233600 -0.202764 -35.170072 -1.393992 7.729799 28.671471 3.677715 10.908109 -2.231681 0.000000 0.000000 0.000000 -0.693523 0.753856 0.441086 0.858475 0.200565 -0.996406 -0.887955 -1.679898 8.122503 0.117510 0.081457 -0.050125 -0.864866 -0.557974 8.155147 2.613142 -9.911379 -4.546414 0.000000 0.000000 0.000000 0.707690 -0.092888 4.968144 1.034960 -1.268651 1.867424 -43.021651 -7.072056 46.791372 -32.608512 -71.552058 49.829942 0.000000 0.000000 0.000000 -3.795957 1.674344 3.915014 18.726125 1.077732 -2.857184 37.638072 56.104731 -7.824309 -175.065658 57.483623 -169.827927 0.000000 0.000000 0.000000 
25.196886 77.599632 95.186890 0.209038 -18.149812 -0.239554 -4.158830 -1.860140 11.372044 5.299364 -3.926239 -1.630650 8.664238 9.756008 27.095866 1.045528 -1.354568 -9.408656 0.000000 0.000000 0.000000 -2.809964 -2.469467 8.028269 -1.446745 1.458326 -34.505125 -1.091865 7.933387 31.942408 2.793491 10.313573 -4.953420 0.000000 0.000000 0.000000 -0.447907 0.874058 0.374503 0.964577 0.183789 -1.498335 -0.899161 -1.791804 7.928309 -0.008826 -0.039360 -0.064599 -0.919630 -0.435817 7.902356 2.184297 -10.032510 -4.825813 0.000000 0.000000 0.000000 0.527985 -0.150923 4.892111 0.855523 -1.167065 1.833073 -42.876745 -6.953189 46.633711 -32.866057 -71.778144 50.201276 0.000000 0.000000 0.000000 -3.843891 1.520566 3.651014 19.220289 1.605585 -2.456725 35.337199 56.476676 -9.277828 -175.680334 56.900158 -170.093895 0.000000 0.000000 0.000000 
22.825550 77.633537 97.240036 0.743168 -17.750263 -0.443193 -4.107988 -1.644070 10.870157 5.292504 -3.167097 -1.051819 9.251667 10.651229 29.217623 0.728950 -1.705307 -7.852124 0.000000 0.000000 0.000000 -2.689108 -2.487946 8.124809 -1.814467 3.637851 -33.927223 -0.552378 8.017545 35.973227 1.949539 9.900386 -9.563098 0.000000 0.000000 0.000000 -0.709061 0.693330 0.326583 0.751224 0.070995 -1.924120 -1.016791 -1.850719 7.748318 0.037912 -0.117090 -0.030737 -0.931963 -0.397187 7.661133 1.880860 -10.246424 -5.084097 0.000000 0.000000 0.000000 0.615351 -0.125933 4.611685 0.682980 -1.054806 1.789502 -42.888745 -6.883288 46.599433 -32.938075 -71.847860 50.404812 0.000000 0.000000 0.000000 -3.836199 1.553255 3.425380 19.462020 2.238891 -2.166489 33.472527 56.465474 -10.460974 -176.085364 56.420989 -170.005075 0.000000 0.000000 0.000000 
